<svg xmlns="http://www.w3.org/2000/svg" xmlns:xlink="http://www.w3.org/1999/xlink" width="128.161" height="130.789" viewBox="0 0 128.161 130.789">
  <defs>
    <filter id="Tracé_8" x="0" y="0" width="128.161" height="130.789" filterUnits="userSpaceOnUse">
      <feOffset dx="6" dy="3" input="SourceAlpha"/>
      <feGaussianBlur stdDeviation="3" result="blur"/>
      <feFlood flood-opacity="0.161"/>
      <feComposite operator="in" in2="blur"/>
      <feComposite in="SourceGraphic"/>
    </filter>
  </defs>
  <g id="Groupe_9" data-name="Groupe 9" transform="translate(-3.611 -51.502)">
    <g transform="matrix(1, 0, 0, 1, 3.61, 51.5)" filter="url(#Tracé_8)">
      <path id="Tracé_8-2" data-name="Tracé 8" d="M110.161,103.757c0-26.651-24.66-48.255-55.081-48.255S0,77.107,0,103.757c0,21.526,16.092,39.754,38.31,45.97l16.771,18.564,16.771-18.564C94.069,143.511,110.161,125.284,110.161,103.757Z" transform="translate(3 -49.5)" fill="#b14961"/>
    </g>
    <g id="Groupe_6" data-name="Groupe 6" transform="translate(76.696 96.634)">
      <circle id="Ellipse_10" data-name="Ellipse 10" cx="7.884" cy="7.884" r="7.884" transform="translate(0 15.565) rotate(-80.783)" fill="#fff"/>
    </g>
    <g id="Groupe_7" data-name="Groupe 7" transform="translate(30.552 97.795)">
      <circle id="Ellipse_11" data-name="Ellipse 11" cx="7.884" cy="7.884" r="7.884" transform="translate(23.653 0)" fill="#fff"/>
      <circle id="Ellipse_12" data-name="Ellipse 12" cx="7.884" cy="7.884" r="7.884" transform="translate(0 0)" fill="#fff"/>
    </g>
    <g id="Groupe_8" data-name="Groupe 8" transform="translate(30.552 97.795)">
      <path id="Tracé_10" data-name="Tracé 10" d="M104.664,189.476a7.884,7.884,0,0,0-7.884,7.884h15.769A7.884,7.884,0,0,0,104.664,189.476Z" transform="translate(-96.78 -189.476)" fill="#fff"/>
      <path id="Tracé_11" data-name="Tracé 11" d="M179.591,189.476a7.884,7.884,0,0,0-7.884,7.884h15.769A7.884,7.884,0,0,0,179.591,189.476Z" transform="translate(-148.054 -189.476)" fill="#fff"/>
      <path id="Tracé_12" data-name="Tracé 12" d="M254.518,189.476a7.884,7.884,0,0,0-7.884,7.884H262.4A7.884,7.884,0,0,0,254.518,189.476Z" transform="translate(-199.328 -189.476)" fill="#fff"/>
    </g>
  </g>
</svg>
