<svg xmlns="http://www.w3.org/2000/svg" xmlns:xlink="http://www.w3.org/1999/xlink" width="261.801" height="58.803" viewBox="0 0 261.801 58.803">
  <defs>
    <clipPath id="clip-path">
      <path id="Tracé_102" data-name="Tracé 102" d="M0,0H261.8V-58.8H0Z" fill="#fff"/>
    </clipPath>
  </defs>
  <g id="logo" transform="translate(0 58.803)">
    <g id="Groupe_26" data-name="Groupe 26" clip-path="url(#clip-path)">
      <g id="Groupe_25" data-name="Groupe 25" transform="translate(118.185 -22.919)">
        <path id="Tracé_101" data-name="Tracé 101" d="M0,0H8.495a11.46,11.46,0,1,1,0,22.919H0ZM5.99,16.99H8.526a5.424,5.424,0,1,0,0-10.848H5.99Z" fill="#fff"/>
      </g>
    </g>
    <g id="Groupe_27" data-name="Groupe 27" transform="translate(142.294 -22.919)">
      <path id="Tracé_103" data-name="Tracé 103" d="M0,0V22.919H14.241V18H6.02V13.782h7.273V8.708H6.02V4.981h8.221V0Z" fill="#fff"/>
    </g>
    <g id="Groupe_37" data-name="Groupe 37" clip-path="url(#clip-path)">
      <g id="Groupe_28" data-name="Groupe 28" transform="translate(190.438 -7.823)">
        <path id="Tracé_104" data-name="Tracé 104" d="M0,0C-.092,5.286-4.492,7.823-8.954,7.823c-.764,0-4.4-.367-6.508-2.384.733-.733,2.2-2.2,4.369-4.431a3.123,3.123,0,0,0,2.353.765A2.534,2.534,0,0,0-6.02-.886V-15.1H0Z" fill="#fff"/>
      </g>
      <g id="Groupe_29" data-name="Groupe 29" transform="translate(204.605 -22.919)">
        <path id="Tracé_105" data-name="Tracé 105" d="M0,0A11.489,11.489,0,0,1,11.459,11.49,11.437,11.437,0,0,1,0,22.919,11.411,11.411,0,0,1-11.429,11.49,11.463,11.463,0,0,1,0,0M0,5.99a5.458,5.458,0,0,0-5.44,5.47A5.478,5.478,0,0,0,0,16.929,5.484,5.484,0,0,0,5.47,11.46,5.464,5.464,0,0,0,0,5.99" fill="#fff"/>
      </g>
      <g id="Groupe_30" data-name="Groupe 30" transform="translate(224.949 -9.137)">
        <path id="Tracé_106" data-name="Tracé 106" d="M0,0A3,3,0,0,0,2.995,2.994,3,3,0,0,0,5.99,0V-13.782h6.05V.092A9.024,9.024,0,0,1,2.995,9.137,8.987,8.987,0,0,1-6.051.092V-13.782H0Z" fill="#fff"/>
      </g>
      <g id="Groupe_31" data-name="Groupe 31" transform="translate(254.864)">
        <path id="Tracé_107" data-name="Tracé 107" d="M0,0-3.545-6.081H-7.273V0h-6.02V-22.919h9.656A8.451,8.451,0,0,1,4.8-14.485,8.418,8.418,0,0,1,2.078-8.312L6.937,0ZM-7.273-11.276h3.728a3.26,3.26,0,0,0,3.3-3.27,3.286,3.286,0,0,0-3.3-3.3H-7.273Z" fill="#fff"/>
      </g>
      <g id="Groupe_32" data-name="Groupe 32" transform="translate(13.978 -53.434)">
        <path id="Tracé_108" data-name="Tracé 108" d="M0,0H.231q1.99,0,5.23,2.916a2.547,2.547,0,0,1,.463,1.018v.139q0,.233-1.018.555Q3.1,6.667-.139,19.717q-1.667,6.759-2.731,11.71Q.23,26.984,3.7,26.984h.463q3.471,0,5.739,4.4a10.64,10.64,0,0,1,.648,3.379q0,5.091-5.045,12.959-3.934,5.509-6.85,5.508h-.695q-2.359,0-4.859-3.286h-.093Q-7.544,53-7.915,53h-.416q-2.176,0-5.416-3.24a2.123,2.123,0,0,1-.231-.787q6.433-31.056,10.6-43.554Q-1.251,0,0,0M-6.434,47.951a7.046,7.046,0,0,0,1.2.324q1.11-.324,3.888-3.8,5.46-8.053,5.461-13.422,0-1.2-.787-1.2H3.24q-1.713.417-4.814,5.508a45.815,45.815,0,0,0-3.749,8.054,19.963,19.963,0,0,0-1.111,4.536" fill="#fff"/>
      </g>
      <g id="Groupe_33" data-name="Groupe 33" transform="translate(33.741 -26.45)">
        <path id="Tracé_109" data-name="Tracé 109" d="M0,0H.463Q3.424,0,6.3,3.61a5.214,5.214,0,0,1,.694,2.453q0,3.1-3.842,7.73a6.573,6.573,0,0,1-2.5,1.62.756.756,0,0,1-.417.092h-.37A4.534,4.534,0,0,1-1.9,15.089a18.8,18.8,0,0,0-.833,4.582,3.551,3.551,0,0,0,1.62,3.379l.741.092q3.424,0,9.951-13.793a4.175,4.175,0,0,1,.648-1.3h.231a3.117,3.117,0,0,1,2.315,1.528v.185Q5.738,26.2.231,26.2a8.35,8.35,0,0,1-8.47-5.878,12.383,12.383,0,0,1-.74-4.166q0-6.8,5.137-13.468Q-1.434,0,0,0M-.926,13.145Q1.9,11.339,3.842,6.526a6.175,6.175,0,0,0,.324-1.481,18.5,18.5,0,0,0-4.4,5.508,8.076,8.076,0,0,0-.695,2.592" fill="#fff"/>
      </g>
      <g id="Groupe_34" data-name="Groupe 34" transform="translate(70.213 -58.803)">
        <path id="Tracé_110" data-name="Tracé 110" d="M0,0H.278Q2.222.14,4.906,2.453a2.626,2.626,0,0,1,1.018,1.62q0,.233-.879.556-2.963,5.923-8.609,25.41Q-8.331,47.118-8.331,54.2q0,.37.139,1.713Q-6.248,54.43-.417,40.5h.371q2.313.879,2.314,1.851-.139.14-3.1,7.128a44.331,44.331,0,0,1-4.212,7.73A3.215,3.215,0,0,1-7.683,58.6h-.232q-3.424,0-6.2-4.258a8.146,8.146,0,0,1-.648-2.87h-.046A31.4,31.4,0,0,1-18.1,57.254a3.373,3.373,0,0,1-2.638,1.3q-3.472,0-6.156-3.981a7.73,7.73,0,0,1-.833-3.888q0-9.765,7.266-32.63,4.212-12.4,5.647-12.913h.139q1.851,0,5,2.777a2.247,2.247,0,0,1,.694,1.2V9.3a.816.816,0,0,1-.694.417q-1.529,2.128-5.092,13.746-6.48,22.263-6.48,30.5v.416q0,.464.093,1.435,2.129-1.758,7.591-15.089A207.837,207.837,0,0,1-8.1,20.273,165,165,0,0,1-.787.926,4.2,4.2,0,0,1,0,0" fill="#fff"/>
      </g>
      <g id="Groupe_35" data-name="Groupe 35" transform="translate(76.554 -26.45)">
        <path id="Tracé_111" data-name="Tracé 111" d="M0,0H.463Q3.424,0,6.3,3.61a5.214,5.214,0,0,1,.694,2.453q0,3.1-3.842,7.73a6.573,6.573,0,0,1-2.5,1.62.756.756,0,0,1-.417.092h-.37A4.534,4.534,0,0,1-1.9,15.089a18.8,18.8,0,0,0-.833,4.582,3.551,3.551,0,0,0,1.62,3.379l.741.092q3.424,0,9.951-13.793a4.175,4.175,0,0,1,.648-1.3h.231a3.114,3.114,0,0,1,2.314,1.528v.185Q5.739,26.2.231,26.2a8.35,8.35,0,0,1-8.47-5.878,12.383,12.383,0,0,1-.74-4.166q0-6.8,5.137-13.468Q-1.436,0,0,0M-.926,13.145Q1.9,11.339,3.842,6.526a6.175,6.175,0,0,0,.324-1.481,18.5,18.5,0,0,0-4.4,5.508,8.076,8.076,0,0,0-.695,2.592" fill="#fff"/>
      </g>
      <g id="Groupe_36" data-name="Groupe 36" transform="translate(90.162 -26.496)">
        <path id="Tracé_112" data-name="Tracé 112" d="M0,0Q1.666.093,4.3,2.453A1.68,1.68,0,0,1,4.86,3.471,20.854,20.854,0,0,0,4.4,7.729a20.172,20.172,0,0,0,.417,3.842Q10.691,8.1,12.589,8.1a3.6,3.6,0,0,1,1.62,1.388v.139q-.046.232-1.481.6A36.33,36.33,0,0,0,5.508,14.9a28.956,28.956,0,0,1,1.527,6.572v.648q0,2.776-3.193,3.888a7.56,7.56,0,0,1-2.083.278q-4.953-.324-6.156-3.7a3.227,3.227,0,0,0-.093-.694q0-2.361,5.277-7.036A47.036,47.036,0,0,1-.555,9.581L-.972,9.9Q-3.379,8.793-3.518,8.053-.74,2.083-.741.463A.775.775,0,0,1,0,0M-1.018,21.707A3.714,3.714,0,0,0,1.2,20.134a4.715,4.715,0,0,0,.324-1.62,10.163,10.163,0,0,0-2.545,3.193" fill="#fff"/>
      </g>
    </g>
  </g>
</svg>
