<svg xmlns="http://www.w3.org/2000/svg" width="94.242" height="74.597" viewBox="0 0 94.242 74.597">
  <g id="Groupe_41" data-name="Groupe 41" transform="translate(-9 -737.404)">
    <g id="picto_offres" data-name="picto offres" transform="translate(-2.341 724.404)">
      <path id="Tracé_30" data-name="Tracé 30" d="M117.313,182.487a1.287,1.287,0,0,1-.91-2.2L134,162.7a1.287,1.287,0,1,1,1.82,1.82L118.223,182.11A1.283,1.283,0,0,1,117.313,182.487Z" transform="translate(-89.513 -121.549)" fill="#cbcbcb"/>
      <path id="Tracé_31" data-name="Tracé 31" d="M216.939,2.991a10.212,10.212,0,0,0-14.443,0L183.562,21.925a1.287,1.287,0,0,0,0,1.82l12.623,12.623a1.287,1.287,0,0,0,1.82,0l18.934-18.934a10.212,10.212,0,0,0,0-14.442Z" transform="translate(-145.181 13)" fill="#e5e5e5"/>
      <path id="Tracé_32" data-name="Tracé 32" d="M267.148,9.018a10.25,10.25,0,0,0-2.331-1.748,10.212,10.212,0,0,1-1.068,13.186L244.814,39.39a1.266,1.266,0,0,1-1.057.367l2.637,2.637a1.287,1.287,0,0,0,1.82,0L267.148,23.46a10.212,10.212,0,0,0,0-14.442Z" transform="translate(-195.39 6.974)" fill="#cbcbcb"/>
      <path id="Tracé_33" data-name="Tracé 33" d="M126.147,256.586a1.287,1.287,0,0,0-2.126-.489l-3.57,3.57a4.85,4.85,0,1,1-6.859-6.859,1.287,1.287,0,0,0-1.82-1.82L69.626,293.135a1.287,1.287,0,0,0,.91,2.2H96.572a1.288,1.288,0,0,0,.91-.377l25.771-25.771A12.251,12.251,0,0,0,126.147,256.586Z" transform="translate(-34.739 -207.736)" fill="#ffc89f"/>
      <g id="Groupe_12" data-name="Groupe 12" transform="translate(53.421 47.985)">
        <path id="Tracé_34" data-name="Tracé 34" d="M217.767,281.338a1.287,1.287,0,0,0-2.126-.489l-3.57,3.57a4.817,4.817,0,0,1-2.06,1.222,12.238,12.238,0,0,1-3.55,8.294L180.69,319.707a1.287,1.287,0,0,1-.91.377h8.412a1.288,1.288,0,0,0,.91-.377l25.771-25.772A12.251,12.251,0,0,0,217.767,281.338Z" transform="translate(-179.78 -280.472)" fill="#f7b081"/>
      </g>
      <path id="Tracé_35" data-name="Tracé 35" d="M260.563,361.144a1.287,1.287,0,0,0-2.124-.483l-3.57,3.57a4.928,4.928,0,0,1-6.969-6.969,1.287,1.287,0,0,0-1.82-1.82l-24.276,24.276a1.287,1.287,0,0,0,.91,2.2H249.08a1.288,1.288,0,0,0,.91-.377l7.736-7.736A12.238,12.238,0,0,0,260.563,361.144Z" transform="translate(-160.882 -294.319)" fill="#ffc89f"/>
      <g id="Groupe_13" data-name="Groupe 13" transform="translate(81.693 65.966)">
        <path id="Tracé_36" data-name="Tracé 36" d="M363.02,386.428a1.287,1.287,0,0,0-2.124-.483l-3.57,3.57c-.049.049-.1.1-.15.143a12.193,12.193,0,0,1-3.5,9.429l-7.736,7.736a1.287,1.287,0,0,1-.91.377h6.505a1.288,1.288,0,0,0,.91-.377l7.736-7.736A12.239,12.239,0,0,0,363.02,386.428Z" transform="translate(-345.032 -385.568)" fill="#f7b081"/>
      </g>
      <path id="Tracé_37" data-name="Tracé 37" d="M44.681,265.632a1.287,1.287,0,0,0-1.461-.239l-13.654,6.6a3.942,3.942,0,0,0-1.072,6.337l3.744,3.745a3.943,3.943,0,0,0,6.372-1.146l6.339-13.842A1.286,1.286,0,0,0,44.681,265.632Z" transform="translate(-16 -206.881)" fill="#b14961"/>
      <path id="Tracé_38" data-name="Tracé 38" d="M68.114,267.087a1.287,1.287,0,0,0-1.73-1.694l-4.623,2.235-6.476,14.329.118.118a3.943,3.943,0,0,0,6.372-1.146Z" transform="translate(-39.163 -206.881)" fill="#b14961"/>
      <path id="Tracé_39" data-name="Tracé 39" d="M327.177,204.741l-8.679-8.679a1.287,1.287,0,0,0-1.82,0l-9.4,9.4a7.424,7.424,0,0,0,10.5,10.5l9.4-9.4A1.287,1.287,0,0,0,327.177,204.741Z" transform="translate(-230.247 -162.207)" fill="#b14961"/>
      <path id="Tracé_40" data-name="Tracé 40" d="M349.463,237.393l-2.316-2.316L332,250.227a7.441,7.441,0,0,0,8.069-1.617l9.4-9.4A1.287,1.287,0,0,0,349.463,237.393Z" transform="translate(-252.534 -194.858)" fill="#b14961"/>
      <path id="Tracé_41" data-name="Tracé 41" d="M375.014,309.3l-8.789-8.789a1.287,1.287,0,0,0-1.82,0l-9.4,9.4a7.432,7.432,0,0,0,0,10.5l.11.11a7.433,7.433,0,0,0,10.5,0l9.4-9.4a1.287,1.287,0,0,0,0-1.82Z" transform="translate(-269.809 -248.789)" fill="#b14961"/>
      <path id="Tracé_42" data-name="Tracé 42" d="M397.861,342.946a1.288,1.288,0,0,0-.377-.91l-2.409-2.409-15.129,15.212a7.437,7.437,0,0,0,8.141-1.586l9.4-9.4A1.287,1.287,0,0,0,397.861,342.946Z" transform="translate(-292.279 -281.521)" fill="#b14961"/>
    </g>
  </g>
</svg>
