<svg xmlns="http://www.w3.org/2000/svg" width="74" height="74.043" viewBox="0 0 74 74.043">
  <g id="Groupe_15" data-name="Groupe 15" transform="translate(0 0.148)">
    <path id="Tracé_43" data-name="Tracé 43" d="M299.957,34.968a1.011,1.011,0,0,0-.752-.332H265.449a1.012,1.012,0,0,0-1.011,1.012.987.987,0,0,0,0,.1l3.838,38.8a1.012,1.012,0,0,0,1.008.913h.723v10.4a26.358,26.358,0,0,1-.238,3.5,1.017,1.017,0,0,0,0,.234l.051.516a1.011,1.011,0,0,0,1.007.912h23a1.012,1.012,0,0,0,1.007-.912l5.377-54.356a1.01,1.01,0,0,0-.256-.779Z" transform="translate(-226.218 -29.757)" fill="#b14961"/>
    <path id="Tracé_44" data-name="Tracé 44" d="M453.084,34.968a1.011,1.011,0,0,0-.752-.332h-3.521a1.012,1.012,0,0,1,1.011,1.012q0,.05,0,.1L444.443,90.1a1.012,1.012,0,0,1-1.007.912h3.521a1.012,1.012,0,0,0,1.007-.912l5.377-54.356a1.01,1.01,0,0,0-.256-.778Z" transform="translate(-379.346 -29.757)" fill="#833648"/>
    <path id="Tracé_45" data-name="Tracé 45" d="M326.569,411.732v10.279a3.328,3.328,0,0,1-3.324,3.324h-18.28a3.328,3.328,0,0,1-3.324-3.324V411.732a1.009,1.009,0,0,1,1.007-1.012h22.91A1.013,1.013,0,0,1,326.569,411.732Z" transform="translate(-258.044 -351.485)" fill="#e5e5e5"/>
    <path id="Tracé_46" data-name="Tracé 46" d="M435.57,410.72h-3.018a1.013,1.013,0,0,1,1.012,1.012v10.279a3.328,3.328,0,0,1-3.324,3.324h3.018a3.328,3.328,0,0,0,3.324-3.324V411.732A1.013,1.013,0,0,0,435.57,410.72Z" transform="translate(-368.057 -351.485)" fill="#b5b2b2"/>
    <rect id="Rectangle_18" data-name="Rectangle 18" width="35.781" height="7.051" rx="3.525" transform="translate(38.219 -0.148)" fill="#cbcbcb"/>
    <path id="Tracé_47" data-name="Tracé 47" d="M490.741-.148h-1.686l-.723,7.053h2.409a1.012,1.012,0,0,0,1.012-1.012V.864A1.012,1.012,0,0,0,490.741-.148Z" transform="translate(-417.753)" fill="#b5b2b2"/>
    <path id="Tracé_48" data-name="Tracé 48" d="M301.64,438.2h24.929v2.023H301.64Z" transform="translate(-258.044 -374.993)" fill="#cbcbcb"/>
    <path id="Tracé_49" data-name="Tracé 49" d="M338.021,123.68c-4.756,0-8.481,6.73-8.481,15.32s3.725,15.32,8.481,15.32,8.481-6.73,8.481-15.32S342.777,123.68,338.021,123.68Z" transform="translate(-281.911 -105.931)" fill="#e5e5e5"/>
    <path id="Tracé_50" data-name="Tracé 50" d="M382.858,123.68a5.012,5.012,0,0,0-.906.084c4.315.793,7.573,7.2,7.573,15.236s-3.261,14.444-7.573,15.236a5.011,5.011,0,0,0,.906.084c4.756,0,8.481-6.73,8.481-15.32s-3.725-15.32-8.481-15.32Z" transform="translate(-326.748 -105.931)" fill="#bcbaba"/>
    <path id="Tracé_51" data-name="Tracé 51" d="M74.425,128.2v1.989a1.013,1.013,0,0,1-1.012,1.012H41.252a1.013,1.013,0,0,1-1.012-1.012V128.2a5.076,5.076,0,0,1,4.122-4.972c.006-.029.006-.058.012-.087a7.053,7.053,0,0,1,6.978-6.036,10.329,10.329,0,0,0,8.152-4.024l3.006-3.925a1.012,1.012,0,0,1,1.619.023l2.5,3.451a19.534,19.534,0,0,1,3.706,10.51.5.5,0,0,1,.006.092A5.08,5.08,0,0,1,74.425,128.2Z" transform="translate(-34.424 -93.166)" fill="#ffc89f"/>
    <path id="Tracé_52" data-name="Tracé 52" d="M200.968,125.16a5.024,5.024,0,0,0-3.064-1.931.494.494,0,0,0-.006-.092,19.534,19.534,0,0,0-3.706-10.51l-2.5-3.451a1.012,1.012,0,0,0-1.619-.023l-.718.938,1.84,2.537a19.534,19.534,0,0,1,3.706,10.51.5.5,0,0,1,.006.092,5.08,5.08,0,0,1,4.082,4.966v1.989a1.013,1.013,0,0,1-1.012,1.012h3a1.013,1.013,0,0,0,1.012-1.012V128.2A4.994,4.994,0,0,0,200.968,125.16Z" transform="translate(-161.985 -93.166)" fill="#f7b081"/>
    <path id="Tracé_53" data-name="Tracé 53" d="M60.924,209.252a1.013,1.013,0,0,1-1.012,1.012H47.28a5.059,5.059,0,0,1,3.1-1.937c.006-.029.006-.058.012-.087h9.516A1.013,1.013,0,0,1,60.924,209.252Z" transform="translate(-40.447 -178.269)" fill="#f7b081"/>
    <path id="Tracé_54" data-name="Tracé 54" d="M187.835,210.263H175.012a1.012,1.012,0,1,1,0-2.023h9.753a.494.494,0,0,1,.006.092A5.024,5.024,0,0,1,187.835,210.263Z" transform="translate(-148.852 -178.269)" fill="#f7b081"/>
    <path id="Tracé_55" data-name="Tracé 55" d="M62.765,251.012v7.672a1.013,1.013,0,0,1-1.012,1.012h-36.9a1.013,1.013,0,0,1-1.012-1.012v-7.672A1.013,1.013,0,0,1,24.852,250h36.9A1.013,1.013,0,0,1,62.765,251.012Z" transform="translate(-20.394 -213.994)" fill="#cbcbcb"/>
    <g id="Groupe_14" data-name="Groupe 14" transform="translate(3.446 36.006)">
      <path id="Tracé_56" data-name="Tracé 56" d="M269.187,250H266.32a1.013,1.013,0,0,1,1.012,1.012v7.672a1.013,1.013,0,0,1-1.012,1.012h2.867a1.013,1.013,0,0,0,1.012-1.012v-7.672A1.013,1.013,0,0,0,269.187,250Z" transform="translate(-231.274 -250)" fill="#b5b2b2"/>
      <path id="Tracé_57" data-name="Tracé 57" d="M202.343,276.52v2.023H188.012a1.012,1.012,0,0,1,0-2.023Z" transform="translate(-163.418 -272.687)" fill="#b5b2b2"/>
      <path id="Tracé_58" data-name="Tracé 58" d="M39.183,277.532a1.009,1.009,0,0,1-1.007,1.012H23.84V276.52H38.172A1.013,1.013,0,0,1,39.183,277.532Z" transform="translate(-23.84 -272.687)" fill="#b5b2b2"/>
    </g>
    <path id="Tracé_59" data-name="Tracé 59" d="M44.8,303.064H1.012A1.012,1.012,0,0,0,0,304.076v11.408a28.409,28.409,0,0,0,6,17.411,1.011,1.011,0,0,0,.8.389h32.23a1.011,1.011,0,0,0,.8-.389,28.409,28.409,0,0,0,6-17.411V304.076a1.012,1.012,0,0,0-1.012-1.012Z" transform="translate(0 -259.388)" fill="#b14961"/>
    <path id="Tracé_60" data-name="Tracé 60" d="M258.809,303.064h-2.867a1.012,1.012,0,0,1,1.012,1.012v11.408a28.409,28.409,0,0,1-6,17.411,1.011,1.011,0,0,1-.8.389h2.867a1.011,1.011,0,0,0,.8-.389,28.409,28.409,0,0,0,6-17.411V304.076a1.012,1.012,0,0,0-1.012-1.012Z" transform="translate(-214.004 -259.388)" fill="#833648"/>
  </g>
</svg>
